<?xml version="1.0" encoding="UTF-8"?>
<svg version="1.1" xmlns="http://www.w3.org/2000/svg" width="1254" height="1254">
<path d="M0 0 C413.82 0 827.64 0 1254 0 C1254 413.82 1254 827.64 1254 1254 C840.18 1254 426.36 1254 0 1254 C0 840.18 0 426.36 0 0 Z " fill="#01082C" transform="translate(0,0)"/>
<path d="M0 0 C0.69591078 -0.00453111 1.39182157 -0.00906223 2.10882056 -0.01373065 C4.44074809 -0.02639039 6.77244253 -0.02475323 9.10440063 -0.02310181 C10.77683818 -0.02908651 12.44927296 -0.03589192 14.1217041 -0.04345703 C18.66773156 -0.06114077 23.21368373 -0.06581371 27.75974226 -0.0670886 C30.60419591 -0.06851064 33.44863047 -0.07278147 36.29307938 -0.07808304 C46.22954775 -0.09659866 56.16596246 -0.10475267 66.10244751 -0.10317993 C75.34090798 -0.10198156 84.57913367 -0.12302007 93.8175348 -0.15466726 C101.76342718 -0.18090911 109.70924334 -0.19154376 117.65517867 -0.19026911 C122.39411832 -0.18976134 127.13284984 -0.19534041 131.87174606 -0.21662521 C136.3386343 -0.23613845 140.80511891 -0.23604362 145.27202225 -0.22159195 C146.90128425 -0.21951811 148.53057235 -0.22411853 150.15979004 -0.23631287 C170.87504099 -0.38116998 186.45334821 6.15468406 201.54434204 20.46664429 C212.71671999 32.79063658 219.42476171 47.99257496 219.33788013 64.67287254 C219.34268985 66.05233997 219.34268985 66.05233997 219.34759673 67.45967543 C219.35589544 70.54005492 219.34997283 73.6202399 219.34410095 76.70062256 C219.34712169 78.93191837 219.35101078 81.16321315 219.35569352 83.3945061 C219.36599224 89.5253944 219.36378691 95.65622435 219.35951293 101.78711748 C219.35730217 107.7202492 219.36445408 113.65336773 219.37127318 119.58649431 C219.38651116 133.21937104 219.38821846 146.85222919 219.38575015 160.48511265 C219.38391729 171.01258537 219.38567695 181.540052 219.38997459 192.06752396 C219.390577 193.58014949 219.39117819 195.09277503 219.3917782 196.60540057 C219.39268545 198.88479873 219.39359412 201.1641969 219.39451055 203.44359506 C219.40293979 224.63548951 219.40727596 245.82738168 219.40310383 267.01927757 C219.40294745 267.81812466 219.40279108 268.61697175 219.40262996 269.44002633 C219.40182418 273.48887325 219.40097841 277.53772017 219.40011666 281.58656709 C219.39994557 282.39067676 219.39977448 283.19478642 219.39959821 284.02326305 C219.39925156 285.64936779 219.39890303 287.27547254 219.39855263 288.90157728 C219.39319513 314.20518111 219.40112678 339.50875009 219.41958618 364.81234741 C219.44030274 393.24326099 219.45102958 421.67415298 219.4470107 450.10507452 C219.44661535 453.13661488 219.4462538 456.16815523 219.44591331 459.19969559 C219.44582258 459.94613376 219.44573185 460.69257194 219.44563837 461.46162946 C219.44447248 472.72897965 219.45112002 483.99630805 219.46172523 495.2636528 C219.47377418 508.0779091 219.4753397 520.89211738 219.46293507 533.70637439 C219.45688847 540.24525562 219.45597662 546.78406197 219.46793747 553.32293892 C219.47875942 559.30870458 219.47573678 565.29429754 219.46167579 571.280055 C219.4590187 573.44552446 219.461427 575.6110073 219.46941165 577.77646367 C219.47951639 580.72128267 219.47109653 583.66550119 219.45813465 586.61029625 C219.465444 587.44969022 219.47275334 588.28908418 219.48028418 589.15391433 C219.34903434 603.55386377 212.47723598 615.60654235 202.70840454 625.82601929 C189.44217608 638.16440142 173.55825736 640.03587278 156.32559204 639.89633179 C154.44620629 639.89716281 152.56682063 639.89963095 150.68743896 639.90364075 C146.77248941 639.90648017 142.85811785 639.89197802 138.94326782 639.86434937 C133.95606344 639.83022253 128.96988769 639.83631849 123.98263359 639.85501194 C120.10981857 639.86563954 116.23723802 639.85659288 112.36444473 639.84162712 C110.52667057 639.83649022 108.68887146 639.8368717 106.85110092 639.84317207 C87.27453088 639.88512152 75.00282644 635.22824433 60.83340454 621.34213257 C58.56917375 619.08372385 56.32609631 616.80500465 54.08340454 614.52523804 C52.87393882 613.30761476 51.6637193 612.09073982 50.45278931 610.87457275 C47.29762395 607.70245135 44.15117888 604.5218316 41.00704956 601.33877563 C35.95019493 596.22223417 30.88013725 591.11878004 25.8097229 586.01568222 C24.04596021 584.23799156 22.28607837 582.45653022 20.52676392 580.67443848 C19.4506737 579.58832852 18.37450607 578.50229524 17.29824829 577.41635132 C16.81202499 576.92181961 16.3258017 576.4272879 15.82484436 575.91777039 C13.66181307 573.74053897 11.65168076 571.97960968 9.08340454 570.26742554 C9.08340454 569.60742554 9.08340454 568.94742554 9.08340454 568.26742554 C8.55164832 568.06070882 8.0198921 567.8539921 7.47202206 567.64101124 C4.10543809 565.70504134 1.57688649 563.02882209 -1.13447571 560.29005432 C-1.75506554 559.67117334 -2.37565537 559.05229236 -3.01505095 558.41465741 C-5.09631039 556.33669586 -7.1703344 554.25165971 -9.24447632 552.16659546 C-10.73404208 550.67646562 -12.22404824 549.18677591 -13.71446228 547.69749451 C-17.76437755 543.64815414 -21.80808645 539.59266638 -25.85073543 535.53607345 C-30.08091176 531.29340171 -34.31674551 527.05638605 -38.55198669 522.81877136 C-46.57870851 514.7858271 -54.60031928 506.74779893 -62.62011677 498.70794231 C-71.72913294 489.57663152 -80.84377289 480.45094328 -89.9589175 471.32575071 C-105.54127089 455.72602177 -121.1193748 440.12205972 -136.69281006 424.51342773 C-137.35070434 423.85405427 -138.00859861 423.1946808 -138.68642908 422.51532632 C-139.89482533 421.30418924 -141.10319287 420.09302353 -142.31152385 418.88182133 C-143.36423537 417.82669176 -144.41712358 416.77173843 -145.4702239 415.71699691 C-146.84897174 414.33519886 -148.22566359 412.95135026 -149.60224819 411.56739712 C-151.47012503 409.7111227 -153.35553525 407.89434989 -155.29101562 406.10955811 C-164.7552077 397.3355653 -173.96641863 388.34306098 -183.06644821 379.19273758 C-185.44334152 376.80281884 -187.82357502 374.41626877 -190.20458984 372.03045654 C-195.23646589 366.98730722 -200.26430662 361.94014709 -205.29159546 356.89242554 C-211.17208586 350.98828798 -217.05424313 345.08582977 -222.94057083 339.18751144 C-225.28589975 336.83570175 -227.62820308 334.48090691 -229.97039795 332.12597656 C-231.39421205 330.6985337 -232.81816462 329.27122893 -234.24227905 327.84408569 C-234.89255569 327.18864273 -235.54283234 326.53319977 -236.21281433 325.8578949 C-236.80667435 325.26396439 -237.40053436 324.67003387 -238.01239014 324.05810547 C-238.52809256 323.54018244 -239.04379498 323.02225941 -239.57512474 322.48864174 C-240.92175305 321.15175841 -240.92175305 321.15175841 -242.91659546 320.26742554 C-242.91290829 321.34472333 -242.90922112 322.42202112 -242.90542221 323.5319643 C-242.81655954 349.76475745 -242.75086183 375.99753104 -242.70934677 402.230443 C-242.68873594 414.91657173 -242.66064345 427.60260093 -242.61483765 440.28866577 C-242.5749248 451.34794406 -242.5491519 462.40715024 -242.54024148 473.46649855 C-242.53503432 479.32044157 -242.52282607 485.17417837 -242.49367523 491.02805519 C-242.46643604 496.54295876 -242.45816771 502.05757201 -242.46416473 507.57253647 C-242.4630683 509.59169151 -242.45516539 511.61085671 -242.43977356 513.62995338 C-242.2602576 538.40320493 -242.2602576 538.40320493 -250.60018921 546.88070679 C-251.38764526 547.69619995 -252.17510132 548.51169312 -252.98641968 549.35189819 C-253.96299704 550.32388926 -254.93973894 551.29571502 -255.91659546 552.26742554 C-257.1795953 553.55197145 -258.44138254 554.83771027 -259.70223999 556.12435913 C-263.34172866 559.82494937 -267.00719942 563.49863481 -270.6824646 567.16366577 C-272.98106755 569.45689302 -275.27425576 571.75543793 -277.56698608 574.05453491 C-279.04908733 575.53597554 -280.53149866 577.01710604 -282.01425171 578.49789429 C-282.68843643 579.17410324 -283.36262115 579.85031219 -284.05723572 580.54701233 C-287.15293313 583.62772149 -290.27643056 586.61214667 -293.59994507 589.44638062 C-299.02574937 594.13562508 -304.02434191 599.26431197 -309.07408142 604.3497467 C-310.92275421 606.21134586 -312.77467507 608.06966057 -314.62741089 609.92721558 C-318.55997656 613.87113118 -322.48858445 617.8189743 -326.41659546 621.76742554 C-330.97343329 626.34797583 -335.53193953 630.92684003 -340.0947113 635.5014801 C-341.90685351 637.32003845 -343.71592389 639.14161349 -345.52487183 640.96334839 C-350.61656477 646.07747385 -355.7226291 651.1129878 -361.21826172 655.79840088 C-363.90410771 658.12160384 -366.4079555 660.61542219 -368.91268921 663.13070679 C-369.69120995 663.90779243 -369.69120995 663.90779243 -370.48545837 664.70057678 C-371.56456066 665.77900686 -372.64243484 666.8586672 -373.71908569 667.93954468 C-375.37166728 669.59755508 -377.02961745 671.2500653 -378.68807983 672.90219116 C-379.74243765 673.95720864 -380.79648584 675.01253568 -381.85018921 676.06820679 C-382.34490219 676.56089554 -382.83961517 677.05358429 -383.34931946 677.561203 C-385.96073004 680.16769934 -385.96073004 680.16769934 -387.91659546 683.26742554 C-388.57659546 683.26742554 -389.23659546 683.26742554 -389.91659546 683.26742554 C-390.00221491 632.85525911 -390.0818144 582.44308759 -390.12831116 532.03086853 C-390.12900144 531.28436875 -390.12969173 530.53786897 -390.13040293 529.76874799 C-390.14536859 513.54403954 -390.15921934 497.31933033 -390.17192211 481.09461996 C-390.17815861 473.13765459 -390.18464141 465.18068943 -390.19125366 457.22372437 C-390.19190746 456.43192428 -390.19256125 455.6401242 -390.19323486 454.82433017 C-390.21452934 429.17468653 -390.25207672 403.52509807 -390.29808156 377.87548784 C-390.34528418 351.51008926 -390.37603187 325.1447212 -390.38617041 298.77928108 C-390.38761112 295.05259725 -390.3892393 291.32591352 -390.39098167 287.59922981 C-390.39131879 286.86578825 -390.3916559 286.13234669 -390.39200323 285.37667963 C-390.39790442 273.58559424 -390.42107466 261.79460342 -390.45075563 250.00355654 C-390.48024796 238.14028068 -390.49142135 226.27709827 -390.48410235 214.41378706 C-390.48090137 207.9896998 -390.48579236 201.5658894 -390.51262283 195.14185143 C-390.53703081 189.25472446 -390.53813365 183.36805943 -390.52108993 177.48091079 C-390.51898477 175.35682629 -390.52526283 173.23271246 -390.54101137 171.10868531 C-390.67257434 152.26098599 -387.8276999 137.8300327 -374.60409546 123.51742554 C-364.02343311 113.54809035 -351.53871856 110.79928333 -337.35580444 110.8633728 C-335.72644958 110.85307793 -335.72644958 110.85307793 -334.06417847 110.84257507 C-330.51354487 110.82444047 -326.96335866 110.82812469 -323.41268921 110.83383179 C-320.92270262 110.82926447 -318.43271729 110.82395726 -315.94273376 110.81794739 C-310.74069068 110.80904311 -305.53880135 110.8114099 -300.33676147 110.82138062 C-293.690443 110.83288225 -287.04465489 110.81262599 -280.39840603 110.78346348 C-275.26208664 110.76506927 -270.12589371 110.76540016 -264.98954964 110.771101 C-262.53968625 110.77125373 -260.08981403 110.76524924 -257.63998222 110.75280952 C-254.20898503 110.73783621 -250.77895992 110.7486232 -247.34799194 110.76571655 C-245.85064262 110.7512146 -245.85064262 110.7512146 -244.32304382 110.73641968 C-226.4811914 110.92139031 -214.97542156 121.72387475 -203.03256226 133.82675171 C-201.99700906 134.86479558 -200.96077929 135.90216486 -199.92393494 136.93891907 C-197.71356784 139.1519674 -195.50798641 141.36963358 -193.30618858 143.5912075 C-189.82045575 147.10824733 -186.32411616 150.61461837 -182.82646179 154.11979675 C-177.29614937 159.66453308 -171.77310954 165.21644987 -166.2530821 170.77142364 C-156.36163373 180.72502216 -146.45780788 190.66629849 -136.55124599 200.6048525 C-133.0801049 204.08777964 -129.61217255 207.57386126 -126.14694345 211.06267011 C-123.99031973 213.23317014 -121.8316675 215.40164482 -119.67256737 217.56968117 C-118.67599163 218.57130269 -117.68029883 219.57380365 -116.68558121 220.57727051 C-110.7003009 226.66662054 -110.7003009 226.66662054 -104.27677917 232.27812195 C-103.49791855 232.93459213 -102.71905792 233.59106232 -101.91659546 234.26742554 C-101.91659546 234.92742554 -101.91659546 235.58742554 -101.91659546 236.26742554 C-101.33316092 236.52582057 -100.74972639 236.7842156 -100.14861202 237.05044079 C-97.73466103 238.36662347 -96.14312393 239.79466005 -94.20433044 241.73918152 C-93.12149529 242.81789268 -93.12149529 242.81789268 -92.01678467 243.918396 C-91.23485748 244.70751373 -90.4529303 245.49663147 -89.64730835 246.30966187 C-88.81594864 247.14072952 -87.98458893 247.97179718 -87.1280365 248.82804871 C-84.85164401 251.10559534 -82.57975151 253.38751885 -80.30977559 255.67145753 C-77.92941229 258.06434727 -75.54336129 260.45155188 -73.15791321 262.83937073 C-68.63736413 267.36613638 -64.1219342 271.89797285 -59.60832542 276.43165749 C-54.48955467 281.57270958 -49.3651739 286.70815379 -44.24027646 291.84309733 C-35.4731017 300.62764672 -26.71014143 309.41637752 -17.95193481 318.20986938 C-16.53899498 319.62844437 -15.12569408 321.04665987 -13.71194458 322.46442795 C-12.25280768 323.929781 -10.79846312 325.3999049 -9.3455658 326.8714447 C-6.82203608 329.36070064 -4.24244307 331.77748223 -1.64375496 334.18771172 C6.99027998 342.19877225 15.3740295 350.43490736 23.67766953 358.78652573 C25.95374036 361.0756375 28.23316443 363.36136625 30.5133667 365.6463623 C35.33125808 370.47551841 40.14510769 375.30869057 44.95840454 380.14242554 C50.59107416 385.7987478 56.22541571 391.45338512 61.86392593 397.10388565 C64.10954001 399.35597863 66.35212704 401.61105638 68.59460449 403.86627197 C69.95774967 405.23304586 71.32103329 406.59968168 72.68447876 407.96615601 C73.30670319 408.59354675 73.92892761 409.2209375 74.57000732 409.86734009 C77.54024403 412.94334812 77.54024403 412.94334812 81.08340454 415.26742554 C81.55250092 381.3139355 81.88221871 347.36227322 82.02892084 313.40591113 C82.04641581 309.38367023 82.06504694 305.36143534 82.0843811 301.33920288 C82.08821056 300.53855696 82.09204002 299.73791105 82.09598552 298.91300313 C82.16043548 286.00264284 82.31659926 273.0949762 82.50757183 260.18593808 C82.70192594 246.90799637 82.7956083 233.63199891 82.79873836 220.3526243 C82.80330579 212.90556774 82.85271766 205.46468556 83.01758194 198.01930618 C85.37926646 162.63599713 85.37926646 162.63599713 70.97941399 132.14339256 C66.68329498 128.03154333 62.08337659 124.54587771 57.12317276 121.2768898 C50.44820948 116.86434937 44.83674011 111.16503993 39.23965454 105.48617554 C38.62626221 104.86899658 38.01286987 104.25181763 37.38088989 103.61593628 C34.79590936 101.01483765 32.21702632 98.40772539 29.63760376 95.80111694 C20.58339809 86.60984782 20.58339809 86.60984782 11.01992798 77.95932007 C6.65619007 74.14682591 2.57610479 70.02875824 -1.54159546 65.95492554 C-2.45682983 65.06869507 -3.37206421 64.1824646 -4.31503296 63.26937866 C-9.91264389 57.72434645 -14.28380524 52.26687035 -17.91659546 45.26742554 C-18.27495483 44.58962036 -18.63331421 43.91181519 -19.00253296 43.21347046 C-23.05507936 34.58557319 -23.51497555 22.80451299 -21.26425171 13.59945679 C-17.28511681 4.77021755 -9.39002877 0.02524832 0 0 Z " fill="#0C45FC" transform="translate(735.9165954589844,274.7325744628906)"/>
<path d="M0 0 C0.69591078 -0.00453111 1.39182157 -0.00906223 2.10882056 -0.01373065 C4.44074809 -0.02639039 6.77244253 -0.02475323 9.10440063 -0.02310181 C10.77683818 -0.02908651 12.44927296 -0.03589192 14.1217041 -0.04345703 C18.66773156 -0.06114077 23.21368373 -0.06581371 27.75974226 -0.0670886 C30.60419591 -0.06851064 33.44863047 -0.07278147 36.29307938 -0.07808304 C46.22954775 -0.09659866 56.16596246 -0.10475267 66.10244751 -0.10317993 C75.34090798 -0.10198156 84.57913367 -0.12302007 93.8175348 -0.15466726 C101.76342718 -0.18090911 109.70924334 -0.19154376 117.65517867 -0.19026911 C122.39411832 -0.18976134 127.13284984 -0.19534041 131.87174606 -0.21662521 C136.3386343 -0.23613845 140.80511891 -0.23604362 145.27202225 -0.22159195 C146.90128425 -0.21951811 148.53057235 -0.22411853 150.15979004 -0.23631287 C170.87504099 -0.38116998 186.45334821 6.15468406 201.54434204 20.46664429 C212.77688945 32.85700812 219.43745628 48.0869585 219.32391357 64.84725952 C219.32562242 65.78106131 219.32733127 66.71486309 219.32909191 67.6769619 C219.33237211 70.7892271 219.32140733 73.90127413 219.31045532 77.01351929 C219.30989089 79.25112401 219.31020839 81.48872911 219.31134033 83.72633362 C219.3119136 89.78974866 219.30016342 95.85308439 219.28619242 101.91648102 C219.27368077 108.257254 219.27251421 114.59802884 219.2701416 120.93881226 C219.26463385 131.57782523 219.25214566 142.21680693 219.23428345 152.85580444 C219.2159092 163.81120662 219.20176026 174.7666009 219.19326782 185.72201538 C219.19274238 186.39796159 219.19221693 187.0739078 219.19167556 187.77033722 C219.18906537 191.16155627 219.18653798 194.55277538 219.18405175 197.94399452 C219.16333782 226.05182505 219.12797928 254.15962349 219.08340454 282.26742554 C218.42340454 282.26742554 217.76340454 282.26742554 217.08340454 282.26742554 C215.74356079 280.86898804 215.74356079 280.86898804 214.14590454 278.89242554 C211.17752834 275.38490793 208.01811571 272.31945224 204.58340454 269.26742554 C201.36718942 266.40079902 198.35183192 263.5682428 195.58340454 260.26742554 C191.99355386 255.99255504 187.90282005 252.36086135 183.73184204 248.66195679 C178.18242586 243.64456429 173.17594978 238.15742088 168.16348267 232.61508179 C165.40789718 229.61198862 162.60679658 226.80256107 159.49612427 224.16647339 C154.44332459 219.77692051 149.74810802 215.05677227 145.03067017 210.31234741 C144.04763356 209.32738717 143.06436573 208.34265766 142.08088684 207.35813904 C139.97824457 205.25235714 137.87716071 203.14503735 135.77729797 201.03648376 C132.45036154 197.69592101 129.11952121 194.35926872 125.78811646 191.02316284 C118.11674641 183.33979687 110.45041862 175.6514063 102.78414154 167.96295929 C95.75253383 160.91112172 88.71984172 153.8603745 81.68307829 146.81368113 C78.37801541 143.5036648 75.07539927 140.19123298 71.77469635 136.8768692 C69.71421292 134.80887676 67.65161506 132.7430029 65.58846474 130.67767143 C64.19042217 129.27689314 62.7949044 127.87359636 61.39949036 126.47019958 C57.00136179 122.07170594 52.55283314 117.80908393 47.81625366 113.77542114 C44.81143715 111.16050791 42.03438438 108.32173908 39.23965454 105.48617554 C38.62626221 104.86899658 38.01286987 104.25181763 37.38088989 103.61593628 C34.79590936 101.01483765 32.21702632 98.40772539 29.63760376 95.80111694 C20.58339809 86.60984782 20.58339809 86.60984782 11.01992798 77.95932007 C6.65619007 74.14682591 2.57610479 70.02875824 -1.54159546 65.95492554 C-2.45682983 65.06869507 -3.37206421 64.1824646 -4.31503296 63.26937866 C-9.91264389 57.72434645 -14.28380524 52.26687035 -17.91659546 45.26742554 C-18.27495483 44.58962036 -18.63331421 43.91181519 -19.00253296 43.21347046 C-23.05507936 34.58557319 -23.51497555 22.80451299 -21.26425171 13.59945679 C-17.28511681 4.77021755 -9.39002877 0.02524832 0 0 Z " fill="#2A9AFC" transform="translate(735.9165954589844,274.7325744628906)"/>
<path d="M0 0 C7.37938415 6.25231782 7.37938415 6.25231782 10.55931091 9.44578552 C11.47775284 10.36433319 11.47775284 10.36433319 12.41474915 11.30143738 C13.05961777 11.95147232 13.70448639 12.60150726 14.36889648 13.27124023 C15.06907898 13.972883 15.76926147 14.67452576 16.49066162 15.39743042 C17.99985871 16.9104118 19.50790021 18.4245466 21.01489067 19.93972588 C23.40540093 22.34308534 25.79909583 24.74323223 28.19361877 27.14259338 C34.1388864 33.10117956 40.07869749 39.06519556 46.01867676 45.02905273 C51.04490467 50.07506988 56.0732142 55.11899543 61.10426521 60.16020393 C63.45264067 62.51502147 65.79796265 64.87285081 68.14317322 67.2308197 C69.59586874 68.68715092 71.04870664 70.14334014 72.50170898 71.59936523 C73.14455338 72.24737595 73.78739777 72.89538666 74.44972229 73.56303406 C78.26005032 77.37379878 82.18908052 80.98277725 86.28358555 84.48707676 C88.43840643 86.38643072 90.32490212 88.44071678 92.1875 90.625 C97.99675586 97.40042683 104.55801725 103.35202324 111.1171875 109.38476562 C114.16896858 112.2206188 117.11778238 115.0225286 119.75390625 118.25390625 C121.70012286 120.6333676 123.58794249 122.539633 125.9375 124.5 C129.47427674 127.52672924 132.82734619 130.58939715 136 134 C136 134.66 136 135.32 136 136 C136.66 136 137.32 136 138 136 C138.06868501 175.8315133 138.12153839 215.66301887 138.15319599 255.49457958 C138.15694805 260.19837216 138.16083103 264.90216462 138.16479492 269.60595703 C138.16558185 270.54238697 138.16636878 271.4788169 138.16717956 272.4436235 C138.1802291 287.60089053 138.20388046 302.75812339 138.23145839 317.91537015 C138.25952515 333.47116701 138.27617895 349.02694599 138.28226548 364.58276713 C138.28637928 374.17948812 138.29936672 383.77611251 138.3237494 393.37280376 C138.33962226 399.9559801 138.34439684 406.53910659 138.34050413 413.12230067 C138.338585 416.91895533 138.34150152 420.71544131 138.35761642 424.51206589 C138.37498276 428.63375378 138.3689486 432.75508425 138.36076355 436.87680054 C138.36950207 438.06942989 138.3782406 439.26205924 138.38724393 440.49082887 C138.3497058 447.48983536 137.44950456 453.43008213 135 460 C134.67 460 134.34 460 134 460 C133.7471933 454.56465585 133.7471933 454.56465585 134.98681641 451.79589844 C136.29906289 448.17473054 136.32439772 444.7558225 136.3359375 440.953125 C136.3425943 440.18248718 136.3492511 439.41184937 136.35610962 438.61785889 C136.36620658 436.99070612 136.37092756 435.36351219 136.37060547 433.73632812 C136.37496213 431.27142377 136.41126412 428.80833606 136.44921875 426.34375 C136.5578502 411.93929288 132.91270185 403.08084398 122.82669067 392.57945251 C121.68526035 391.42934912 120.53851729 390.28450011 119.38720703 389.14428711 C118.75544556 388.51062729 118.12368408 387.87696747 117.47277832 387.22410583 C115.40596001 385.15361622 113.33208725 383.09036104 111.2578125 381.02734375 C109.80545107 379.57617654 108.35346144 378.12463714 106.90182495 376.67274475 C103.86716122 373.63963972 100.82918572 370.60990597 97.78857422 367.58276367 C93.90795073 363.71912122 90.03393388 359.84893741 86.16217232 355.97641659 C83.16660855 352.9811259 80.16843665 349.98845735 77.16939926 346.99664497 C75.7407942 345.5712027 74.31277692 344.14517107 72.88537979 342.71851921 C63.36982482 333.11983394 63.36982482 333.11983394 53.22238159 324.20484924 C52.81899567 323.80724899 52.41560974 323.40964874 52 323 C52 322.34 52 321.68 52 321 C51.44129935 320.72226714 50.88259871 320.44453428 50.30696774 320.15838528 C28.73820632 309.32817934 7.38298732 293.60815881 -1 270 C-6.36891702 249.51392332 -5.69090287 227.20694111 -5.56640625 206.15234375 C-5.56246823 205.41474998 -5.55853022 204.67715621 -5.55447286 203.91721112 C-5.43908738 184.67094785 -4.83770076 165.44798432 -4.0839256 146.21752226 C-3.64994956 135.03480528 -3.34199165 123.85364963 -3.11889648 112.66479492 C-3.09510581 111.47437189 -3.09510581 111.47437189 -3.07083452 110.25989991 C-2.99187339 106.27649392 -2.91497468 102.29305129 -2.83909905 98.30958545 C-2.21203028 65.52734553 -1.22845101 32.76531862 0 0 Z " fill="#0016BA" transform="translate(817,421)"/>
<path d="M0 0 C0.33 0 0.66 0 1 0 C1 74.91 1 149.82 1 227 C0.34 227 -0.32 227 -1 227 C-2.33984375 225.6015625 -2.33984375 225.6015625 -3.9375 223.625 C-8.50146519 218.22946489 -13.70969752 213.66847669 -19 209 C-18.01 208.67 -17.02 208.34 -16 208 C-11.66666667 212.33333333 -7.33333333 216.66666667 -3 221 C-1.90430858 217.45879898 -1.8794514 214.18289545 -1.88647461 210.48855591 C-1.88632575 209.83564099 -1.88617689 209.18272608 -1.88602352 208.51002586 C-1.88671785 206.32191796 -1.89456105 204.13389409 -1.90234375 201.94580078 C-1.90426372 200.3745478 -1.90572715 198.80329421 -1.9067688 197.23204041 C-1.90993454 193.83980306 -1.91621272 190.44759051 -1.92483521 187.0553627 C-1.93843713 181.64041589 -1.9442724 176.2254772 -1.94897461 170.81051636 C-1.96101668 158.2818969 -1.98272651 145.75329775 -2.00520325 133.2246933 C-2.15627392 48.98452197 -2.15627392 48.98452197 -1.5625 21.8671875 C-1.54285187 20.92935551 -1.52320374 19.99152351 -1.50296021 19.02527237 C-1.44734925 16.49172514 -1.38419367 13.95854056 -1.31640625 11.42529297 C-1.29968872 10.71356808 -1.28297119 10.00184319 -1.26574707 9.26855087 C-1.16653549 6.05284942 -0.96340852 3.08130322 0 0 Z " fill="#197DE0" transform="translate(954,330)"/>
<path d="M0 0 C0.33 0 0.66 0 1 0 C1.83618981 8.36761334 2.12447997 16.62149816 2.0625 25.02734375 C2.05871338 26.21928848 2.05492676 27.41123322 2.05102539 28.63929749 C2.03892084 32.40540384 2.02028014 36.17142937 2 39.9375 C1.97340091 44.92577908 1.95343666 49.91402053 1.9375 54.90234375 C1.92920166 56.04195053 1.92090332 57.18155731 1.91235352 58.35569763 C1.90905029 59.41772903 1.90574707 60.47976044 1.90234375 61.57397461 C1.89448853 62.96863197 1.89448853 62.96863197 1.88647461 64.39146423 C2.03670693 67.84343549 2.4477697 70.8955394 4 74 C4.78375 73.01 5.5675 72.02 6.375 71 C7.24125 70.01 8.1075 69.02 9 68 C9.66 68 10.32 68 11 68 C11.33 67.01 11.66 66.02 12 65 C16.31818182 60.22727273 16.31818182 60.22727273 20 59 C20.33 58.01 20.66 57.02 21 56 C22.4375 54.3125 22.4375 54.3125 24 53 C24.66 53 25.32 53 26 53 C26.268125 52.360625 26.53625 51.72125 26.8125 51.0625 C28 49 28 49 31 48 C32.20882096 45.99983534 32.20882096 45.99983534 33 44 C33.66 44 34.32 44 35 44 C35.33 43.01 35.66 42.02 36 41 C36.66 41 37.32 41 38 41 C38.2475 40.401875 38.495 39.80375 38.75 39.1875 C40.18072525 36.68373081 41.5691582 35.51927612 44 34 C44.66 34 45.32 34 46 34 C44.45615972 37.68994791 42.21186057 40.0239451 39.375 42.8125 C38.55773437 43.62332031 37.74046875 44.43414063 36.8984375 45.26953125 C34.79031353 47.25548631 32.67372611 49.14066094 30.47265625 51.015625 C24.35622898 56.32706922 18.75273694 62.17893141 13.0625 67.9375 C10.80622564 70.22028535 8.54669926 72.4997794 6.28515625 74.77734375 C5.51027611 75.5646714 5.51027611 75.5646714 4.71974182 76.36790466 C3.49860529 77.59753993 2.25189311 78.80169247 1 80 C0.67 80 0.34 80 0 80 C0 53.6 0 27.2 0 0 Z " fill="#0BB0F9" transform="translate(347,877)"/>
<path d="M0 0 C0.68707979 -0.00085442 1.37415959 -0.00170885 2.08205998 -0.00258917 C4.37131284 -0.00422886 6.6604915 0.00125253 8.94973755 0.00672913 C10.59592182 0.00701135 12.24210621 0.00685257 13.88829041 0.00628662 C18.34854772 0.00600002 22.80877808 0.01187459 27.26902914 0.01886058 C31.9335221 0.02511695 36.5980157 0.02569972 41.26251221 0.02688599 C50.09151899 0.02999256 58.92051337 0.03819688 67.7495147 0.04823548 C77.80266523 0.05941751 87.85581635 0.06491234 97.90897155 0.06993091 C118.58549031 0.08038005 139.26199791 0.09796646 159.93850708 0.12025452 C159.93850708 0.45025452 159.93850708 0.78025452 159.93850708 1.12025452 C147.71832226 1.28242985 135.49803736 1.43549868 123.27767181 1.58341217 C120.26326355 1.62010532 117.24886496 1.65752913 114.23446655 1.69502258 C92.19867031 1.96660341 70.16749661 2.16741206 48.12991333 2.08119202 C46.33487464 2.07517915 44.53983579 2.06921745 42.74479675 2.06330872 C35.10994892 2.03618794 27.47551522 1.99970382 19.84094524 1.92793846 C16.73237432 1.90147521 13.62382295 1.88687585 10.51516533 1.87506485 C9.08649891 1.8667857 7.65785138 1.85311429 6.22929573 1.83349228 C-2.70417751 1.71209544 -9.07153366 2.05418577 -16.49899292 7.30775452 C-17.76743042 8.20494202 -17.76743042 8.20494202 -19.06149292 9.12025452 C-18.73927105 6.11285042 -18.0537253 5.11248689 -15.87399292 2.93275452 C-10.95584099 -0.23672117 -5.72184372 -0.00430214 0 0 Z " fill="#43C4FE" transform="translate(738.0614929199219,275.87974548339844)"/>
<path d="M0 0 C-11.45412758 5.21755991 -21.60898938 5.69934239 -34.0390625 5.55859375 C-35.93760858 5.55433348 -37.8361599 5.55201394 -39.73471069 5.55152893 C-43.68324947 5.54540813 -47.63121096 5.52291064 -51.57958984 5.48706055 C-56.63911021 5.44148021 -61.69811526 5.42701534 -66.75782204 5.42332363 C-70.66459211 5.41889942 -74.57125441 5.40360832 -78.47797775 5.3844471 C-80.3446909 5.37557975 -82.21141543 5.36884256 -84.07814407 5.36428642 C-86.67680572 5.35525015 -89.27500008 5.33287325 -91.87353516 5.30639648 C-92.64132294 5.30573181 -93.40911072 5.30506714 -94.20016479 5.30438232 C-97.94494804 5.25168723 -100.82067692 5.08997266 -104 3 C-102.88801743 2.99191315 -101.77603485 2.98382629 -100.63035583 2.97549438 C-90.13982416 2.89793652 -79.64942065 2.81017285 -69.15905666 2.71247292 C-63.7661387 2.66257354 -58.37323973 2.61624288 -52.98022461 2.578125 C-47.77355696 2.54119198 -42.56705063 2.49481014 -37.36052132 2.44193649 C-35.37629088 2.42343515 -33.39202591 2.40831154 -31.40774345 2.39665604 C-28.62379388 2.37972066 -25.84021032 2.35066805 -23.05639648 2.31884766 C-22.23999695 2.31668747 -21.42359741 2.31452728 -20.5824585 2.31230164 C-15.68657366 2.24103371 -11.64999426 1.54723651 -7 0 C-3.81451839 -0.9733416 -3.31089789 -1.10363263 0 0 Z " fill="#0C2DDE" transform="translate(926,909)"/>
<path d="M0 0 C2.55260487 1.27630243 2.85312251 2.4070864 4.125 4.9375 C9.87488943 15.52940158 18.06945305 23.1076638 27.25 30.6875 C34.63157895 36.89473684 34.63157895 36.89473684 36 41 C36.66 41 37.32 41 38 41 C42.76744186 45.30232558 42.76744186 45.30232558 44 49 C44.66 49 45.32 49 46 49 C47.55078125 50.57421875 47.55078125 50.57421875 49.3125 52.6875 C52.08185308 55.94522447 54.93302647 59.01591765 58 62 C59.33333333 63.33333333 60.66666667 64.66666667 62 66 C59 66 59 66 56.58325195 63.90795898 C55.6273543 62.94479553 54.67955588 61.97355281 53.73828125 60.99609375 C52.97405098 60.22193871 52.97405098 60.22193871 52.19438171 59.43214417 C50.55985918 57.77418907 48.93575586 56.10648138 47.3125 54.4375 C45.18746627 52.26570592 43.05814386 50.09819158 40.92578125 47.93359375 C40.40632935 47.40568741 39.88687744 46.87778107 39.35168457 46.33387756 C36.02927458 42.97859438 32.60530257 39.82484016 29.01342773 36.7644043 C24.62842729 32.92174657 20.51830222 28.78666193 16.375 24.6875 C15.45976563 23.80126953 14.54453125 22.91503906 13.6015625 22.00195312 C8.14844408 16.60005619 3.07059866 11.13546382 0 4 C0 2.68 0 1.36 0 0 Z " fill="#36AEEC" transform="translate(718,316)"/>
<path d="M0 0 C0.33 0 0.66 0 1 0 C1 28.05 1 56.1 1 85 C-3.5504188 81.09964103 -8.0384456 77.18736391 -12.4375 73.125 C-12.97826172 72.62742187 -13.51902344 72.12984375 -14.07617188 71.6171875 C-15.38509109 70.41251849 -16.69269114 69.20641639 -18 68 C-16.515 67.505 -16.515 67.505 -15 67 C-8.5 73.5 -8.5 73.5 -2 80 C-0.80390988 76.22984542 -0.82703959 72.48435605 -0.79467773 68.56933594 C-0.77982834 67.45655273 -0.77982834 67.45655273 -0.76467896 66.32128906 C-0.73315853 63.87568321 -0.70834405 61.43005795 -0.68359375 58.984375 C-0.66301605 57.2861481 -0.64201936 55.58792623 -0.62062073 53.88970947 C-0.56548433 49.4247241 -0.51603793 44.95969315 -0.46777344 40.49462891 C-0.41749678 35.93648228 -0.36184291 31.37840166 -0.30664062 26.8203125 C-0.19916222 17.88026475 -0.09769441 8.94015964 0 0 Z " fill="#1581FE" transform="translate(953,471)"/>
<path d="M0 0 C3.99085088 1.5983464 6.63527077 4.39606945 9.578125 7.41796875 C10.37352692 8.22117302 10.37352692 8.22117302 11.18499756 9.04060364 C12.87817056 10.75153752 14.56452208 12.46898768 16.25 14.1875 C18.46009227 16.43441647 20.67348403 18.6780072 22.890625 20.91796875 C23.42441772 21.457668 23.95821045 21.99736725 24.50817871 22.55342102 C27.99108797 26.05130784 31.58973866 29.3491086 35.35058594 32.54858398 C37.76588001 34.67394267 39.8812247 37.02077192 42 39.4375 C42.763125 40.30246094 43.52625 41.16742187 44.3125 42.05859375 C44.869375 42.69925781 45.42625 43.33992187 46 44 C45.505 44.99 45.505 44.99 45 46 C39.12980414 40.1529263 33.26227795 34.30319238 27.39818573 28.4499979 C24.6754678 25.73250908 21.95182313 23.01596256 19.22607422 20.30151367 C16.59793782 17.68420516 13.97221823 15.06449485 11.34819031 12.44306755 C10.34427943 11.4410111 9.33948573 10.43983835 8.33381653 9.43954659 C6.93052954 8.04346866 5.53060515 6.64401319 4.13085938 5.24438477 C3.33143921 4.44718521 2.53201904 3.64998566 1.70837402 2.82862854 C0 1 0 1 0 0 Z " fill="#001295" transform="translate(868,473)"/>
<path d="M0 0 C0.33 0 0.66 0 1 0 C1.11756758 4.43727178 1.18770716 8.87413528 1.25 13.3125 C1.30027344 15.17745117 1.30027344 15.17745117 1.3515625 17.08007812 C1.46198273 27.59760515 0.09230753 36.69968405 -7.5 44.5 C-8.2528125 45.2940625 -9.005625 46.088125 -9.78125 46.90625 C-11.76753739 48.78063388 -13.77460992 50.42199612 -16 52 C-14.61431838 48.39722779 -12.27903806 46.35312462 -9.53125 43.7265625 C-6.95254641 40.81894263 -5.58273299 37.53071206 -4 34 C-3.34 34 -2.68 34 -2 34 C-1.97494385 33.21874756 -1.9498877 32.43749512 -1.92407227 31.63256836 C-1.80749797 28.06740383 -1.68505135 24.50246387 -1.5625 20.9375 C-1.52318359 19.70837891 -1.48386719 18.47925781 -1.44335938 17.21289062 C-1.23994142 11.40765506 -1.01223898 5.7246793 0 0 Z " fill="#0A74F7" transform="translate(492,778)"/>
<path d="M0 0 C0 4.79879149 -2.85248204 7.54072788 -6 11 C-8.73803742 13.37454616 -11.53726255 15.62028378 -14.4140625 17.82421875 C-17.09203746 19.92054449 -17.09203746 19.92054449 -19.0859375 22.70703125 C-21.18114874 25.2170088 -21.92839999 25.41734516 -25 26 C-20.03805145 20.00499003 -14.6523376 14.53572963 -9.125 9.0625 C-8.24585938 8.18787109 -7.36671875 7.31324219 -6.4609375 6.41210938 C-4.3095654 4.27242952 -2.15588208 2.13513403 0 0 Z " fill="#011742" transform="translate(379,925)"/>
<path d="M0 0 C2.55260487 1.27630243 2.85312251 2.4070864 4.125 4.9375 C7.99357803 12.12364198 13.16514088 18.32108366 19 24 C18.67 24.66 18.34 25.32 18 26 C3.41278066 12.26252159 3.41278066 12.26252159 0 4 C0 2.68 0 1.36 0 0 Z " fill="#46BEF0" transform="translate(718,316)"/>
<path d="M0 0 C-1.58667578 3.90285767 -4.13350481 6.33520982 -7.125 9.25 C-8.03507812 10.14203125 -8.94515625 11.0340625 -9.8828125 11.953125 C-10.58148438 12.62859375 -11.28015625 13.3040625 -12 14 C-12.66 13.01 -13.32 12.02 -14 11 C-13.01 10.67 -12.02 10.34 -11 10 C-10.67 9.01 -10.34 8.02 -10 7 C-9.34 7 -8.68 7 -8 7 C-7.7525 6.401875 -7.505 5.80375 -7.25 5.1875 C-5.55294333 2.21765083 -3.56508774 0 0 0 Z " fill="#0998E3" transform="translate(393,911)"/>
<path d="M0 0 C4.02455812 0.53171838 5.81522811 2.50221822 8.5625 5.375 C9.32691406 6.16648437 10.09132813 6.95796875 10.87890625 7.7734375 C11.57886719 8.50820313 12.27882813 9.24296875 13 10 C13.99670875 11.00328045 14.99519624 12.00482695 16 13 C16.66 11.68 17.32 10.36 18 9 C18 11.64 18 14.28 18 17 C13.62099431 13.30217297 9.31855625 9.52613402 5.0625 5.6875 C4.10472656 4.82511719 3.14695312 3.96273437 2.16015625 3.07421875 C1.44730469 2.38972656 0.73445312 1.70523438 0 1 C0 0.67 0 0.34 0 0 Z " fill="#0B73F3" transform="translate(935,538)"/>
<path d="M0 0 C0.66 0.33 1.32 0.66 2 1 C1.25234375 1.7734375 0.5046875 2.546875 -0.265625 3.34375 C-5.53947167 8.88953635 -10.09373146 13.80352552 -13 21 C-13.66 21 -14.32 21 -15 21 C-13.00664221 12.36211623 -6.23650003 5.93228051 0 0 Z " fill="#0646E8" transform="translate(365,395)"/>
<path d="M0 0 C0.33 0 0.66 0 1 0 C0.97679687 0.88300781 0.95359375 1.76601563 0.9296875 2.67578125 C0.81386447 10.37801243 1.28273379 17.48696035 3 25 C2.01 25 1.02 25 0 25 C-0.79529242 22.19199386 -1.1282074 19.69270241 -1.1328125 16.77734375 C-1.13410156 15.99166016 -1.13539063 15.20597656 -1.13671875 14.39648438 C-1.13285156 13.58501953 -1.12898437 12.77355469 -1.125 11.9375 C-1.12886719 11.12216797 -1.13273438 10.30683594 -1.13671875 9.46679688 C-1.13542969 8.68240234 -1.13414062 7.89800781 -1.1328125 7.08984375 C-1.13168457 6.37691162 -1.13055664 5.66397949 -1.12939453 4.92944336 C-1 3 -1 3 0 0 Z " fill="#4DC8FA" transform="translate(716,289)"/>
<path d="M0 0 C0.66 0.99 1.32 1.98 2 3 C0.84826645 5.46800047 -0.04783565 7.04783565 -2 9 C-2.3063859 11.73434962 -2.5113336 14.38279821 -2.625 17.125 C-2.66367187 17.87910156 -2.70234375 18.63320313 -2.7421875 19.41015625 C-2.83651031 21.27303184 -2.91934662 23.13648255 -3 25 C-3.33 25 -3.66 25 -4 25 C-4.738041 6.95899772 -4.738041 6.95899772 0 0 Z " fill="#3287BA" transform="translate(718,283)"/>
<path d="M0 0 C3.68069887 1.53643852 5.98775204 3.78150945 8.75 6.625 C9.54921875 7.44226563 10.3484375 8.25953125 11.171875 9.1015625 C12.07679688 10.04128906 12.07679688 10.04128906 13 11 C12.34 11.66 11.68 12.32 11 13 C11 12.34 11 11.68 11 11 C10.12601563 10.61328125 10.12601563 10.61328125 9.234375 10.21875 C6.8197097 8.90165983 5.18259823 7.44911616 3.25 5.5 C2.63640625 4.8915625 2.0228125 4.283125 1.390625 3.65625 C0 2 0 2 0 0 Z " fill="#020A42" transform="translate(755,855)"/>
<path d="M0 0 C2.99220268 1.36370299 5.29026529 2.94908083 7.75 5.125 C8.67039062 5.93324219 8.67039062 5.93324219 9.609375 6.7578125 C10.06828125 7.16773438 10.5271875 7.57765625 11 8 C10.67 8.99 10.34 9.98 10 11 C8.8944811 10.06409496 7.79064547 9.12620142 6.6875 8.1875 C6.07261719 7.66542969 5.45773437 7.14335937 4.82421875 6.60546875 C1.48047722 3.6626898 1.48047722 3.6626898 0 2 C0 1.34 0 0.68 0 0 Z " fill="#3DB5E9" transform="translate(737,341)"/>
<path d="M0 0 C0 4.09089094 -1.69866948 5.44918487 -4.33203125 8.4140625 C-6.36890116 10.35075848 -8.29054445 11.28279118 -11 12 C-7.49102731 7.81576108 -3.91939465 3.80411834 0 0 Z " fill="#011E4F" transform="translate(379,925)"/>
<path d="M0 0 C-3.54039134 2.9156164 -7.1626772 5.50127818 -11 8 C-10.67278832 4.94602429 -9.96883223 3.96883223 -7.75 1.75 C-4.79010327 -0.13357065 -3.42491198 -0.39141851 0 0 Z " fill="#49C0EF" transform="translate(730,277)"/>
<path d="M0 0 C0.99 0.33 1.98 0.66 3 1 C1.73427767 2.15147661 0.46222094 3.29599314 -0.8125 4.4375 C-1.52019531 5.07558594 -2.22789062 5.71367188 -2.95703125 6.37109375 C-5 8 -5 8 -8 9 C-8 8.34 -8 7.68 -8 7 C-7.34 7 -6.68 7 -6 7 C-5.7525 6.401875 -5.505 5.80375 -5.25 5.1875 C-3.80517427 2.65905497 -2.51719455 1.44929383 0 0 Z " fill="#0D2FE6" transform="translate(937,898)"/>
<path d="M0 0 C4.2742558 1.5830577 6.26531794 4.50568404 9 8 C6 8 6 8 4.39453125 6.7578125 C3.87246094 6.21898437 3.35039063 5.68015625 2.8125 5.125 C2.28269531 4.59132813 1.75289062 4.05765625 1.20703125 3.5078125 C0 2 0 2 0 0 Z " fill="#061A41" transform="translate(752,358)"/>
<path d="M0 0 C-1.76858691 0.67260351 -3.53996016 1.33788395 -5.3125 2 C-6.79169922 2.556875 -6.79169922 2.556875 -8.30078125 3.125 C-11 4 -11 4 -14 4 C-14 3.34 -14 2.68 -14 2 C-11.66836622 1.32741333 -9.3347961 0.66152556 -7 0 C-6.2575 -0.226875 -5.515 -0.45375 -4.75 -0.6875 C-3 -1 -3 -1 0 0 Z " fill="#0D31EA" transform="translate(926,909)"/>
<path d="M0 0 C5.63689034 1.32632714 7.93185683 5.46631765 11 10 C7.81326038 8.59698853 5.67778594 6.92234929 3.25 4.4375 C2.63640625 3.81746094 2.0228125 3.19742187 1.390625 2.55859375 C0 1 0 1 0 0 Z " fill="#32ADFA" transform="translate(789,392)"/>
<path d="M0 0 C3.7952131 1.49097658 5.61042731 3.75700849 8 7 C5 7 5 7 2.3125 4.625 C0 2 0 2 0 0 Z " fill="#020A3D" transform="translate(713,587)"/>
<path d="M0 0 C1.14926266 0.95421808 2.29430541 1.91352045 3.4375 2.875 C4.07558594 3.40867187 4.71367188 3.94234375 5.37109375 4.4921875 C7 6 7 6 8 8 C5.50638429 6.79618552 3.31856917 5.54571278 1 4 C0.67 4.66 0.34 5.32 0 6 C0 4.02 0 2.04 0 0 Z " fill="#00128F" transform="translate(817,421)"/>
<path d="M0 0 C3.6875 0.875 3.6875 0.875 7 2 C5.375 3.125 5.375 3.125 3 4 C-0.25 3.125 -0.25 3.125 -3 2 C-2.01 1.34 -1.02 0.68 0 0 Z " fill="#092CD8" transform="translate(817,908)"/>
<path d="M0 0 C3.25543229 0.34879632 4.01873107 1.02133261 6.25 3.5625 C6.8275 4.366875 7.405 5.17125 8 6 C5 6 5 6 3.61328125 4.6875 C2.40885417 3.125 1.20442708 1.5625 0 0 Z " fill="#0B33E8" transform="translate(795,893)"/>
<path d="M0 0 C3.83736322 0.95934081 4.59660228 1.23609263 7 4 C6.67 4.99 6.34 5.98 6 7 C4.02 4.69 2.04 2.38 0 0 Z " fill="#0864E9" transform="translate(917,520)"/>
<path d="M0 0 C4.1424367 1.38081223 5.32203099 3.59825558 8 7 C7.67 7.66 7.34 8.32 7 9 C5.82737096 7.88121617 4.66204862 6.75476949 3.5 5.625 C2.8503125 4.99851562 2.200625 4.37203125 1.53125 3.7265625 C0 2 0 2 0 0 Z " fill="#2795F1" transform="translate(811,413)"/>
<path d="M0 0 C2.7839183 1.39195915 2.97898997 3.15575779 4 6 C3.34 6.66 2.68 7.32 2 8 C0.23537317 4.91190305 0 3.76687864 0 0 Z " fill="#3FB8EA" transform="translate(718,316)"/>
</svg>
